<?xml version="1.0" encoding="UTF-8"?>
<!DOCTYPE svg PUBLIC "-//W3C//DTD SVG 1.1//EN" "http://www.w3.org/Graphics/SVG/1.1/DTD/svg11.dtd">
<svg xmlns="http://www.w3.org/2000/svg" version="1.1" width="512px" height="512px" style="shape-rendering:geometricPrecision; text-rendering:geometricPrecision; image-rendering:optimizeQuality; fill-rule:evenodd; clip-rule:evenodd" xmlns:xlink="http://www.w3.org/1999/xlink">
<g><path style="opacity:1" fill="#a45ad1" d="M 386.5,36.5 C 387.344,38.7593 389.011,39.7593 391.5,39.5C 397.388,42.3932 402.722,46.0599 407.5,50.5C 407.973,51.9063 408.973,52.573 410.5,52.5C 413.81,54.4821 416.81,56.8154 419.5,59.5C 419.5,61.5 420.5,62.5 422.5,62.5C 423.5,62.8333 424.167,63.5 424.5,64.5C 425.262,66.2624 426.596,67.2624 428.5,67.5C 428.5,69.5 429.5,70.5 431.5,70.5C 434.833,73.1667 437.833,76.1667 440.5,79.5C 441.757,82.4274 443.757,84.7607 446.5,86.5C 447.5,86.8333 448.167,87.5 448.5,88.5C 449.08,90.7488 450.413,92.4154 452.5,93.5C 453.5,93.8333 454.167,94.5 454.5,95.5C 454.427,97.0269 455.094,98.0269 456.5,98.5C 457.167,98.5 457.5,98.8333 457.5,99.5C 457.738,101.404 458.738,102.738 460.5,103.5C 460.427,105.027 461.094,106.027 462.5,106.5C 462.738,108.404 463.738,109.738 465.5,110.5C 465.427,112.027 466.094,113.027 467.5,113.5C 467.427,115.027 468.094,116.027 469.5,116.5C 469.427,118.027 470.094,119.027 471.5,119.5C 472.89,120.899 473.89,122.566 474.5,124.5C 474.427,126.027 475.094,127.027 476.5,127.5C 478.008,129.181 479.008,131.181 479.5,133.5C 479.427,135.027 480.094,136.027 481.5,136.5C 491.042,153.783 498.042,172.116 502.5,191.5C 502.171,194.228 502.837,196.562 504.5,198.5C 517.591,257.606 510.925,314.272 484.5,368.5C 483.326,369.514 482.66,370.847 482.5,372.5C 479.821,376.338 476.321,379.338 472,381.5C 461.772,378.947 451.772,375.947 442,372.5C 441.161,361.775 439.994,351.108 438.5,340.5C 449.662,330.842 460.995,321.342 472.5,312C 447.924,304.859 428.091,311.693 413,332.5C 408.782,340.711 406.115,349.378 405,358.5C 366.122,390.38 326.956,421.88 287.5,453C 278.987,461.884 276.154,472.384 279,484.5C 281.862,494.924 288.028,502.59 297.5,507.5C 275.951,510.389 254.284,511.223 232.5,510C 220.967,509.133 209.634,507.3 198.5,504.5C 196.562,502.837 194.228,502.171 191.5,502.5C 172.116,498.042 153.783,491.042 136.5,481.5C 136.027,480.094 135.027,479.427 133.5,479.5C 131.181,479.008 129.181,478.008 127.5,476.5C 127.027,475.094 126.027,474.427 124.5,474.5C 122.566,473.89 120.899,472.89 119.5,471.5C 119.027,470.094 118.027,469.427 116.5,469.5C 116.027,468.094 115.027,467.427 113.5,467.5C 113.027,466.094 112.027,465.427 110.5,465.5C 109.738,463.738 108.404,462.738 106.5,462.5C 106.027,461.094 105.027,460.427 103.5,460.5C 102.738,458.738 101.404,457.738 99.5,457.5C 98.8333,457.5 98.5,457.167 98.5,456.5C 98.0269,455.094 97.0269,454.427 95.5,454.5C 94.5,454.167 93.8333,453.5 93.5,452.5C 92.4154,450.413 90.7488,449.08 88.5,448.5C 87.5,448.167 86.8333,447.5 86.5,446.5C 84.7607,443.757 82.4274,441.757 79.5,440.5C 76.1667,437.833 73.1667,434.833 70.5,431.5C 70.5,429.5 69.5,428.5 67.5,428.5C 67.2624,426.596 66.2624,425.262 64.5,424.5C 63.5,424.167 62.8333,423.5 62.5,422.5C 62.5,420.5 61.5,419.5 59.5,419.5C 56.8154,416.81 54.4821,413.81 52.5,410.5C 52.573,408.973 51.9063,407.973 50.5,407.5C 46.0599,402.722 42.3932,397.388 39.5,391.5C 39.7593,389.011 38.7593,387.344 36.5,386.5C 8.014,339.209 -3.81933,287.875 1,232.5C 1.86678,220.967 3.70011,209.634 6.5,198.5C 8.16276,196.562 8.82943,194.228 8.5,191.5C 12.958,172.116 19.958,153.783 29.5,136.5C 30.9063,136.027 31.573,135.027 31.5,133.5C 31.9925,131.181 32.9925,129.181 34.5,127.5C 35.9063,127.027 36.573,126.027 36.5,124.5C 37.1103,122.566 38.1103,120.899 39.5,119.5C 40.9063,119.027 41.573,118.027 41.5,116.5C 42.9063,116.027 43.573,115.027 43.5,113.5C 44.9063,113.027 45.573,112.027 45.5,110.5C 47.2624,109.738 48.2624,108.404 48.5,106.5C 49.9063,106.027 50.573,105.027 50.5,103.5C 52.2624,102.738 53.2624,101.404 53.5,99.5C 55.4456,98.9653 56.4456,97.632 56.5,95.5C 56.8333,94.5 57.5,93.8333 58.5,93.5C 60.5869,92.4154 61.9202,90.7488 62.5,88.5C 62.8333,87.5 63.5,86.8333 64.5,86.5C 67.2427,84.7607 69.2427,82.4274 70.5,79.5C 73.1667,76.1667 76.1667,73.1667 79.5,70.5C 82.4274,69.2427 84.7607,67.2427 86.5,64.5C 86.8333,63.5 87.5,62.8333 88.5,62.5C 90.7488,61.9202 92.4154,60.5869 93.5,58.5C 94.8908,56.1097 96.8908,54.4431 99.5,53.5C 101.404,53.2624 102.738,52.2624 103.5,50.5C 104.436,49.0256 105.77,48.0256 107.5,47.5C 109.027,47.573 110.027,46.9063 110.5,45.5C 112.027,45.573 113.027,44.9063 113.5,43.5C 113.973,42.0937 114.973,41.427 116.5,41.5C 118.027,41.573 119.027,40.9063 119.5,39.5C 120.899,38.1103 122.566,37.1103 124.5,36.5C 126.027,36.573 127.027,35.9063 127.5,34.5C 129.181,32.9925 131.181,31.9925 133.5,31.5C 135.027,31.573 136.027,30.9063 136.5,29.5C 153.783,19.958 172.116,12.958 191.5,8.5C 194.228,8.82943 196.562,8.16276 198.5,6.5C 255.76,-6.07391 311.094,-0.24058 364.5,24C 372.384,27.4349 379.717,31.6015 386.5,36.5 Z"/></g>
<g><path style="opacity:1" fill="#a381cb" d="M 198.5,6.5 C 196.562,8.16276 194.228,8.82943 191.5,8.5C 193.599,7.38815 195.933,6.72148 198.5,6.5 Z"/></g>
<g><path style="opacity:1" fill="#9f86c7" d="M 136.5,29.5 C 136.027,30.9063 135.027,31.573 133.5,31.5C 133.973,30.0937 134.973,29.427 136.5,29.5 Z"/></g>
<g><path style="opacity:1" fill="#a490c8" d="M 127.5,34.5 C 127.027,35.9063 126.027,36.573 124.5,36.5C 124.973,35.0937 125.973,34.427 127.5,34.5 Z"/></g>
<g><path style="opacity:1" fill="#a178c9" d="M 386.5,36.5 C 388.434,37.1103 390.101,38.1103 391.5,39.5C 389.011,39.7593 387.344,38.7593 386.5,36.5 Z"/></g>
<g><path style="opacity:1" fill="#a389c6" d="M 119.5,39.5 C 119.027,40.9063 118.027,41.573 116.5,41.5C 116.973,40.0937 117.973,39.427 119.5,39.5 Z"/></g>
<g><path style="opacity:1" fill="#a389c9" d="M 113.5,43.5 C 113.027,44.9063 112.027,45.573 110.5,45.5C 110.973,44.0937 111.973,43.427 113.5,43.5 Z"/></g>
<g><path style="opacity:1" fill="#a78fc7" d="M 110.5,45.5 C 110.027,46.9063 109.027,47.573 107.5,47.5C 107.973,46.0937 108.973,45.427 110.5,45.5 Z"/></g>
<g><path style="opacity:0.047" fill="#a195c5" d="M 407.5,50.5 C 409.027,50.427 410.027,51.0937 410.5,52.5C 408.973,52.573 407.973,51.9063 407.5,50.5 Z"/></g>
<g><path style="opacity:1" fill="#a18bc5" d="M 103.5,50.5 C 102.738,52.2624 101.404,53.2624 99.5,53.5C 100.262,51.7376 101.596,50.7376 103.5,50.5 Z"/></g>
<g><path style="opacity:1" fill="#a68cc7" d="M 419.5,59.5 C 420.833,60.1667 421.833,61.1667 422.5,62.5C 420.5,62.5 419.5,61.5 419.5,59.5 Z"/></g>
<g><path style="opacity:1" fill="#a385c7" d="M 93.5,58.5 C 92.4154,60.5869 90.7488,61.9202 88.5,62.5C 89.5846,60.4131 91.2512,59.0798 93.5,58.5 Z"/></g>
<g><path style="opacity:0.11" fill="#a293c4" d="M 424.5,64.5 C 426.404,64.7376 427.738,65.7376 428.5,67.5C 426.596,67.2624 425.262,66.2624 424.5,64.5 Z"/></g>
<g><path style="opacity:1" fill="#a387c6" d="M 86.5,64.5 C 84.7607,67.2427 82.4274,69.2427 79.5,70.5C 81.2393,67.7573 83.5726,65.7573 86.5,64.5 Z"/></g>
<g><path style="opacity:1" fill="#a48cc7" d="M 428.5,67.5 C 429.833,68.1667 430.833,69.1667 431.5,70.5C 429.5,70.5 428.5,69.5 428.5,67.5 Z"/></g>
<g><path style="opacity:1" fill="#a28ec5" d="M 440.5,79.5 C 443.243,81.2393 445.243,83.5726 446.5,86.5C 443.757,84.7607 441.757,82.4274 440.5,79.5 Z"/></g>
<g><path style="opacity:1" fill="#a28ac5" d="M 70.5,79.5 C 69.2427,82.4274 67.2427,84.7607 64.5,86.5C 65.7573,83.5726 67.7573,81.2393 70.5,79.5 Z"/></g>
<g><path style="opacity:1" fill="#a489c6" d="M 448.5,88.5 C 450.587,89.5846 451.92,91.2512 452.5,93.5C 450.413,92.4154 449.08,90.7488 448.5,88.5 Z"/></g>
<g><path style="opacity:1" fill="#a285c6" d="M 62.5,88.5 C 61.9202,90.7488 60.5869,92.4154 58.5,93.5C 59.0798,91.2512 60.4131,89.5846 62.5,88.5 Z"/></g>
<g><path style="opacity:1" fill="#a486c7" d="M 56.5,95.5 C 56.4456,97.632 55.4456,98.9653 53.5,99.5C 54.0256,97.7697 55.0256,96.4363 56.5,95.5 Z"/></g>
<g><path style="opacity:1" fill="#a28bc5" d="M 454.5,95.5 C 455.906,95.9731 456.573,96.9731 456.5,98.5C 455.094,98.0269 454.427,97.0269 454.5,95.5 Z"/></g>
<g><path style="opacity:1" fill="#a18bc5" d="M 53.5,99.5 C 53.2624,101.404 52.2624,102.738 50.5,103.5C 50.7376,101.596 51.7376,100.262 53.5,99.5 Z"/></g>
<g><path style="opacity:1" fill="#a18bc5" d="M 457.5,99.5 C 459.262,100.262 460.262,101.596 460.5,103.5C 458.738,102.738 457.738,101.404 457.5,99.5 Z"/></g>
<g><path style="opacity:1" fill="#a188c5" d="M 50.5,103.5 C 50.573,105.027 49.9063,106.027 48.5,106.5C 48.427,104.973 49.0937,103.973 50.5,103.5 Z"/></g>
<g><path style="opacity:1" fill="#a188c5" d="M 460.5,103.5 C 461.906,103.973 462.573,104.973 462.5,106.5C 461.094,106.027 460.427,105.027 460.5,103.5 Z"/></g>
<g><path style="opacity:1" fill="#a788c9" d="M 48.5,106.5 C 48.2624,108.404 47.2624,109.738 45.5,110.5C 45.7376,108.596 46.7376,107.262 48.5,106.5 Z"/></g>
<g><path style="opacity:1" fill="#a788c9" d="M 462.5,106.5 C 464.262,107.262 465.262,108.596 465.5,110.5C 463.738,109.738 462.738,108.404 462.5,106.5 Z"/></g>
<g><path style="opacity:1" fill="#a38fc9" d="M 45.5,110.5 C 45.573,112.027 44.9063,113.027 43.5,113.5C 43.427,111.973 44.0937,110.973 45.5,110.5 Z"/></g>
<g><path style="opacity:1" fill="#a38fc9" d="M 465.5,110.5 C 466.906,110.973 467.573,111.973 467.5,113.5C 466.094,113.027 465.427,112.027 465.5,110.5 Z"/></g>
<g><path style="opacity:1" fill="#a08ac5" d="M 43.5,113.5 C 43.573,115.027 42.9063,116.027 41.5,116.5C 41.427,114.973 42.0937,113.973 43.5,113.5 Z"/></g>
<g><path style="opacity:1" fill="#a08ac5" d="M 467.5,113.5 C 468.906,113.973 469.573,114.973 469.5,116.5C 468.094,116.027 467.427,115.027 467.5,113.5 Z"/></g>
<g><path style="opacity:1" fill="#212b42" d="M 253.5,116.5 C 273.429,134.761 292.762,153.761 311.5,173.5C 292.833,192.833 273.833,211.833 254.5,230.5C 235.347,211.847 216.347,193.014 197.5,174C 216.754,155.248 235.42,136.082 253.5,116.5 Z"/></g>
<g><path style="opacity:1" fill="#a38fc5" d="M 41.5,116.5 C 41.573,118.027 40.9063,119.027 39.5,119.5C 39.427,117.973 40.0937,116.973 41.5,116.5 Z"/></g>
<g><path style="opacity:1" fill="#a38fc5" d="M 469.5,116.5 C 470.906,116.973 471.573,117.973 471.5,119.5C 470.094,119.027 469.427,118.027 469.5,116.5 Z"/></g>
<g><path style="opacity:1" fill="#212c42" d="M 220.5,231.5 C 218.833,231.5 217.167,231.5 215.5,231.5C 215.5,232.833 215.5,234.167 215.5,235.5C 214.167,235.5 212.833,235.5 211.5,235.5C 211.5,236.833 211.5,238.167 211.5,239.5C 210.167,239.5 208.833,239.5 207.5,239.5C 207.5,240.833 207.5,242.167 207.5,243.5C 206.167,243.5 204.833,243.5 203.5,243.5C 203.5,244.833 203.5,246.167 203.5,247.5C 202.167,247.5 200.833,247.5 199.5,247.5C 199.5,248.833 199.5,250.167 199.5,251.5C 198.167,251.5 196.833,251.5 195.5,251.5C 195.5,252.833 195.5,254.167 195.5,255.5C 194.167,255.5 192.833,255.5 191.5,255.5C 191.5,256.833 191.5,258.167 191.5,259.5C 190.167,259.5 188.833,259.5 187.5,259.5C 187.5,260.833 187.5,262.167 187.5,263.5C 186.167,263.5 184.833,263.5 183.5,263.5C 183.5,264.833 183.5,266.167 183.5,267.5C 182.167,267.5 180.833,267.5 179.5,267.5C 179.5,268.833 179.5,270.167 179.5,271.5C 178.167,271.5 176.833,271.5 175.5,271.5C 175.5,272.833 175.5,274.167 175.5,275.5C 174.167,275.5 172.833,275.5 171.5,275.5C 171.5,276.833 171.5,278.167 171.5,279.5C 170.167,279.5 168.833,279.5 167.5,279.5C 167.5,280.833 167.5,282.167 167.5,283.5C 166.167,283.5 164.833,283.5 163.5,283.5C 163.5,284.833 163.5,286.167 163.5,287.5C 162.167,287.5 160.833,287.5 159.5,287.5C 159.5,288.833 159.5,290.167 159.5,291.5C 158.167,291.5 156.833,291.5 155.5,291.5C 155.5,292.833 155.5,294.167 155.5,295.5C 154.167,295.5 152.833,295.5 151.5,295.5C 151.5,296.833 151.5,298.167 151.5,299.5C 150.167,299.5 148.833,299.5 147.5,299.5C 147.5,300.833 147.5,302.167 147.5,303.5C 146.167,303.5 144.833,303.5 143.5,303.5C 143.5,305.5 143.5,307.5 143.5,309.5C 143.5,325.5 143.5,341.5 143.5,357.5C 136.833,357.5 130.167,357.5 123.5,357.5C 123.5,339.5 123.5,321.5 123.5,303.5C 124.833,303.5 126.167,303.5 127.5,303.5C 127.5,302.167 127.5,300.833 127.5,299.5C 128.833,299.5 130.167,299.5 131.5,299.5C 131.5,298.167 131.5,296.833 131.5,295.5C 132.833,295.5 134.167,295.5 135.5,295.5C 135.5,294.167 135.5,292.833 135.5,291.5C 136.833,291.5 138.167,291.5 139.5,291.5C 139.5,290.167 139.5,288.833 139.5,287.5C 140.833,287.5 142.167,287.5 143.5,287.5C 143.5,286.167 143.5,284.833 143.5,283.5C 144.833,283.5 146.167,283.5 147.5,283.5C 147.5,282.167 147.5,280.833 147.5,279.5C 148.833,279.5 150.167,279.5 151.5,279.5C 151.5,278.167 151.5,276.833 151.5,275.5C 152.833,275.5 154.167,275.5 155.5,275.5C 155.5,274.167 155.5,272.833 155.5,271.5C 156.833,271.5 158.167,271.5 159.5,271.5C 159.5,270.167 159.5,268.833 159.5,267.5C 160.833,267.5 162.167,267.5 163.5,267.5C 163.5,266.167 163.5,264.833 163.5,263.5C 164.833,263.5 166.167,263.5 167.5,263.5C 167.5,262.167 167.5,260.833 167.5,259.5C 168.833,259.5 170.167,259.5 171.5,259.5C 171.5,258.167 171.5,256.833 171.5,255.5C 172.833,255.5 174.167,255.5 175.5,255.5C 175.5,254.167 175.5,252.833 175.5,251.5C 176.833,251.5 178.167,251.5 179.5,251.5C 179.5,250.167 179.5,248.833 179.5,247.5C 180.833,247.5 182.167,247.5 183.5,247.5C 183.5,246.167 183.5,244.833 183.5,243.5C 183.5,242.167 183.5,240.833 183.5,239.5C 154.167,239.5 124.833,239.5 95.5,239.5C 95.5,234.167 95.5,228.833 95.5,223.5C 124.833,223.5 154.167,223.5 183.5,223.5C 183.5,222.167 183.5,220.833 183.5,219.5C 182.5,219.5 181.5,219.5 180.5,219.5C 166.201,205.702 152.035,191.702 138,177.5C 137.5,157.836 137.333,138.169 137.5,118.5C 144.167,118.5 150.833,118.5 157.5,118.5C 157.333,135.17 157.5,151.837 158,168.5C 179.035,189.368 199.868,210.368 220.5,231.5 Z"/></g>
<g><path style="opacity:1" fill="#212b42" d="M 374.5,176.5 C 359.833,191.5 345.167,206.5 330.5,221.5C 358.093,222.499 386.426,222.833 415.5,222.5C 415.5,228.167 415.5,233.833 415.5,239.5C 387.492,239.167 359.492,239.5 331.5,240.5C 331.137,241.183 330.804,241.85 330.5,242.5C 349.465,261.965 368.632,281.299 388,300.5C 388.5,319.497 388.667,338.497 388.5,357.5C 381.833,357.5 375.167,357.5 368.5,357.5C 368.667,341.497 368.5,325.497 368,309.5C 342.167,283.667 316.333,257.833 290.5,232C 312.035,210.632 333.368,189.132 354.5,167.5C 355.496,151.675 355.83,135.675 355.5,119.5C 361.833,119.5 368.167,119.5 374.5,119.5C 374.5,138.5 374.5,157.5 374.5,176.5 Z"/></g>
<g><path style="opacity:1" fill="#382e65" d="M 374.5,176.5 C 374.5,157.5 374.5,138.5 374.5,119.5C 368.167,119.5 361.833,119.5 355.5,119.5C 355.83,135.675 355.496,151.675 354.5,167.5C 354.5,151.167 354.5,134.833 354.5,118.5C 361.5,118.5 368.5,118.5 375.5,118.5C 375.83,138.007 375.497,157.341 374.5,176.5 Z"/></g>
<g><path style="opacity:1" fill="#a490c8" d="M 36.5,124.5 C 36.573,126.027 35.9063,127.027 34.5,127.5C 34.427,125.973 35.0937,124.973 36.5,124.5 Z"/></g>
<g><path style="opacity:0.522" fill="#a69ac7" d="M 474.5,124.5 C 475.906,124.973 476.573,125.973 476.5,127.5C 475.094,127.027 474.427,126.027 474.5,124.5 Z"/></g>
<g><path style="opacity:0.547" fill="#a191c6" d="M 479.5,133.5 C 480.906,133.973 481.573,134.973 481.5,136.5C 480.094,136.027 479.427,135.027 479.5,133.5 Z"/></g>
<g><path style="opacity:1" fill="#a297c5" d="M 31.5,133.5 C 31.573,135.027 30.9063,136.027 29.5,136.5C 29.427,134.973 30.0937,133.973 31.5,133.5 Z"/></g>
<g><path style="opacity:1" fill="#a381cb" d="M 8.5,191.5 C 8.82943,194.228 8.16276,196.562 6.5,198.5C 6.72148,195.933 7.38815,193.599 8.5,191.5 Z"/></g>
<g><path style="opacity:1" fill="#a381cb" d="M 502.5,191.5 C 503.612,193.599 504.279,195.933 504.5,198.5C 502.837,196.562 502.171,194.228 502.5,191.5 Z"/></g>
<g><path style="opacity:1" fill="#21274a" d="M 180.5,219.5 C 181.5,219.5 182.5,219.5 183.5,219.5C 183.5,220.833 183.5,222.167 183.5,223.5C 154.167,223.5 124.833,223.5 95.5,223.5C 124.336,222.833 153.336,222.167 182.5,221.5C 182.376,220.893 182.043,220.56 181.5,220.5C 180.833,220.5 180.5,220.167 180.5,219.5 Z"/></g>
<g><path style="opacity:1" fill="#463370" d="M 181.5,220.5 C 182.043,220.56 182.376,220.893 182.5,221.5C 153.336,222.167 124.336,222.833 95.5,223.5C 95.5,228.833 95.5,234.167 95.5,239.5C 95.5,240.5 95.5,241.5 95.5,242.5C 94.5088,235.687 94.1755,228.687 94.5,221.5C 123.671,221.831 152.671,221.498 181.5,220.5 Z"/></g>
<g><path style="opacity:1" fill="#463370" d="M 330.5,221.5 C 359.167,221.5 387.833,221.5 416.5,221.5C 416.825,228.687 416.491,235.687 415.5,242.5C 415.5,241.5 415.5,240.5 415.5,239.5C 415.5,233.833 415.5,228.167 415.5,222.5C 386.426,222.833 358.093,222.499 330.5,221.5 Z"/></g>
<g><path style="opacity:1" fill="#212b42" d="M 253.5,234.5 C 285.096,264.429 316.096,295.095 346.5,326.5C 316.167,357.5 285.5,388.167 254.5,418.5C 223.5,388.167 192.833,357.5 162.5,326.5C 192.854,295.812 223.188,265.146 253.5,234.5 Z"/></g>
<g><path style="opacity:1" fill="#21274a" d="M 95.5,239.5 C 124.833,239.5 154.167,239.5 183.5,239.5C 183.5,240.833 183.5,242.167 183.5,243.5C 182.833,243.5 182.167,243.5 181.5,243.5C 153.005,242.502 124.338,242.169 95.5,242.5C 95.5,241.5 95.5,240.5 95.5,239.5 Z"/></g>
<g><path style="opacity:1" fill="#21274a" d="M 415.5,239.5 C 415.5,240.5 415.5,241.5 415.5,242.5C 387.167,242.5 358.833,242.5 330.5,242.5C 330.804,241.85 331.137,241.183 331.5,240.5C 359.492,239.5 387.492,239.167 415.5,239.5 Z"/></g>
<g><path style="opacity:1" fill="#222743" d="M 220.5,231.5 C 195.838,257.833 170.171,283.833 143.5,309.5C 143.5,307.5 143.5,305.5 143.5,303.5C 144.833,303.5 146.167,303.5 147.5,303.5C 147.5,302.167 147.5,300.833 147.5,299.5C 148.833,299.5 150.167,299.5 151.5,299.5C 151.5,298.167 151.5,296.833 151.5,295.5C 152.833,295.5 154.167,295.5 155.5,295.5C 155.5,294.167 155.5,292.833 155.5,291.5C 156.833,291.5 158.167,291.5 159.5,291.5C 159.5,290.167 159.5,288.833 159.5,287.5C 160.833,287.5 162.167,287.5 163.5,287.5C 163.5,286.167 163.5,284.833 163.5,283.5C 164.833,283.5 166.167,283.5 167.5,283.5C 167.5,282.167 167.5,280.833 167.5,279.5C 168.833,279.5 170.167,279.5 171.5,279.5C 171.5,278.167 171.5,276.833 171.5,275.5C 172.833,275.5 174.167,275.5 175.5,275.5C 175.5,274.167 175.5,272.833 175.5,271.5C 176.833,271.5 178.167,271.5 179.5,271.5C 179.5,270.167 179.5,268.833 179.5,267.5C 180.833,267.5 182.167,267.5 183.5,267.5C 183.5,266.167 183.5,264.833 183.5,263.5C 184.833,263.5 186.167,263.5 187.5,263.5C 187.5,262.167 187.5,260.833 187.5,259.5C 188.833,259.5 190.167,259.5 191.5,259.5C 191.5,258.167 191.5,256.833 191.5,255.5C 192.833,255.5 194.167,255.5 195.5,255.5C 195.5,254.167 195.5,252.833 195.5,251.5C 196.833,251.5 198.167,251.5 199.5,251.5C 199.5,250.167 199.5,248.833 199.5,247.5C 200.833,247.5 202.167,247.5 203.5,247.5C 203.5,246.167 203.5,244.833 203.5,243.5C 204.833,243.5 206.167,243.5 207.5,243.5C 207.5,242.167 207.5,240.833 207.5,239.5C 208.833,239.5 210.167,239.5 211.5,239.5C 211.5,238.167 211.5,236.833 211.5,235.5C 212.833,235.5 214.167,235.5 215.5,235.5C 215.5,234.167 215.5,232.833 215.5,231.5C 217.167,231.5 218.833,231.5 220.5,231.5 Z"/></g>
<g><path style="opacity:1" fill="#212643" d="M 181.5,243.5 C 182.167,243.5 182.833,243.5 183.5,243.5C 183.5,244.833 183.5,246.167 183.5,247.5C 182.167,247.5 180.833,247.5 179.5,247.5C 179.5,248.833 179.5,250.167 179.5,251.5C 178.167,251.5 176.833,251.5 175.5,251.5C 175.5,252.833 175.5,254.167 175.5,255.5C 174.167,255.5 172.833,255.5 171.5,255.5C 171.5,256.833 171.5,258.167 171.5,259.5C 170.167,259.5 168.833,259.5 167.5,259.5C 167.5,260.833 167.5,262.167 167.5,263.5C 166.167,263.5 164.833,263.5 163.5,263.5C 163.5,264.833 163.5,266.167 163.5,267.5C 162.167,267.5 160.833,267.5 159.5,267.5C 159.5,268.833 159.5,270.167 159.5,271.5C 158.167,271.5 156.833,271.5 155.5,271.5C 155.5,272.833 155.5,274.167 155.5,275.5C 154.167,275.5 152.833,275.5 151.5,275.5C 151.5,276.833 151.5,278.167 151.5,279.5C 150.167,279.5 148.833,279.5 147.5,279.5C 147.5,280.833 147.5,282.167 147.5,283.5C 146.167,283.5 144.833,283.5 143.5,283.5C 143.5,284.833 143.5,286.167 143.5,287.5C 142.167,287.5 140.833,287.5 139.5,287.5C 139.5,288.833 139.5,290.167 139.5,291.5C 138.167,291.5 136.833,291.5 135.5,291.5C 135.5,292.833 135.5,294.167 135.5,295.5C 134.167,295.5 132.833,295.5 131.5,295.5C 131.5,296.833 131.5,298.167 131.5,299.5C 130.167,299.5 128.833,299.5 127.5,299.5C 127.5,300.833 127.5,302.167 127.5,303.5C 126.167,303.5 124.833,303.5 123.5,303.5C 123.351,302.448 123.517,301.448 124,300.5C 143.035,281.298 162.201,262.298 181.5,243.5 Z"/></g>
<g><path style="opacity:0.996" fill="#212c42" d="M 482.5,372.5 C 482.833,373.833 483.167,373.833 483.5,372.5C 484.167,372.5 484.5,372.167 484.5,371.5C 485.74,370.341 487.074,369.341 488.5,368.5C 489.872,367.488 491.205,366.488 492.5,365.5C 493.5,365.167 494.167,364.5 494.5,363.5C 495.872,362.488 497.205,361.488 498.5,360.5C 499.872,359.488 501.205,358.488 502.5,357.5C 503.5,357.167 504.167,356.5 504.5,355.5C 505.601,354.2 506.934,353.7 508.5,354C 508.718,363.612 507.051,373.112 503.5,382.5C 502.599,383.29 501.932,384.29 501.5,385.5C 500.623,387.728 499.29,389.728 497.5,391.5C 496.138,393.7 494.471,395.7 492.5,397.5C 491.128,398.512 489.795,399.512 488.5,400.5C 487.833,400.5 487.5,400.833 487.5,401.5C 486.833,401.5 486.5,401.833 486.5,402.5C 484.257,404.118 481.923,405.451 479.5,406.5C 474.022,408.77 468.355,410.437 462.5,411.5C 462.167,410.167 461.833,410.167 461.5,411.5C 460.5,411.5 459.5,411.5 458.5,411.5C 456.393,410.532 454.059,410.198 451.5,410.5C 449.473,410.338 447.473,410.505 445.5,411C 410.833,439 376.167,467 341.5,495C 341.728,495.399 342.062,495.565 342.5,495.5C 340.426,497.39 338.426,498.724 336.5,499.5C 335.128,500.512 333.795,501.512 332.5,502.5C 330.093,503.794 327.926,505.461 326,507.5C 323.681,506.989 321.514,507.656 319.5,509.5C 319.167,508.167 318.833,508.167 318.5,509.5C 311.381,510.533 304.381,509.866 297.5,507.5C 288.028,502.59 281.862,494.924 279,484.5C 276.154,472.384 278.987,461.884 287.5,453C 326.956,421.88 366.122,390.38 405,358.5C 406.115,349.378 408.782,340.711 413,332.5C 428.091,311.693 447.924,304.859 472.5,312C 460.995,321.342 449.662,330.842 438.5,340.5C 439.994,351.108 441.161,361.775 442,372.5C 451.772,375.947 461.772,378.947 472,381.5C 476.321,379.338 479.821,376.338 482.5,372.5 Z"/></g>
<g><path style="opacity:0.004" fill="#212c42" d="M 504.5,355.5 C 503.833,354.167 503.833,354.167 504.5,355.5 Z"/></g>
<g><path style="opacity:0.012" fill="#212c42" d="M 502.5,357.5 C 501.833,356.167 501.833,356.167 502.5,357.5 Z"/></g>
<g><path style="opacity:0.012" fill="#212c42" d="M 498.5,360.5 C 497.833,359.167 497.833,359.167 498.5,360.5 Z"/></g>
<g><path style="opacity:0.004" fill="#212c42" d="M 494.5,363.5 C 493.833,362.167 493.833,362.167 494.5,363.5 Z"/></g>
<g><path style="opacity:0.016" fill="#212c42" d="M 492.5,365.5 C 491.833,364.167 491.833,364.167 492.5,365.5 Z"/></g>
<g><path style="opacity:0.012" fill="#212c42" d="M 488.5,368.5 C 487.833,367.167 487.833,367.167 488.5,368.5 Z"/></g>
<g><path style="opacity:0.38" fill="#8885ad" d="M 484.5,368.5 C 484.5,369.5 484.5,370.5 484.5,371.5C 483.833,371.5 483.5,371.833 483.5,372.5C 483.167,372.5 482.833,372.5 482.5,372.5C 482.66,370.847 483.326,369.514 484.5,368.5 Z"/></g>
<g><path style="opacity:0.004" fill="#212c42" d="M 503.5,382.5 C 504.833,383.167 504.833,383.167 503.5,382.5 Z"/></g>
<g><path style="opacity:0.004" fill="#212c42" d="M 501.5,385.5 C 502.833,386.167 502.833,386.167 501.5,385.5 Z"/></g>
<g><path style="opacity:1" fill="#a178c9" d="M 36.5,386.5 C 38.7593,387.344 39.7593,389.011 39.5,391.5C 38.1103,390.101 37.1103,388.434 36.5,386.5 Z"/></g>
<g><path style="opacity:0.012" fill="#212c42" d="M 497.5,391.5 C 498.833,392.167 498.833,392.167 497.5,391.5 Z"/></g>
<g><path style="opacity:0.012" fill="#212c42" d="M 492.5,397.5 C 493.833,398.167 493.833,398.167 492.5,397.5 Z"/></g>
<g><path style="opacity:0.008" fill="#212c42" d="M 488.5,400.5 C 489.833,401.167 489.833,401.167 488.5,400.5 Z"/></g>
<g><path style="opacity:0.004" fill="#212c42" d="M 487.5,401.5 C 487.833,401.5 488.167,401.5 488.5,401.5C 488.315,402.17 487.981,402.17 487.5,401.5 Z"/></g>
<g><path style="opacity:0.004" fill="#212c42" d="M 486.5,402.5 C 486.833,402.5 487.167,402.5 487.5,402.5C 487.315,403.17 486.981,403.17 486.5,402.5 Z"/></g>
<g><path style="opacity:0.012" fill="#212c42" d="M 479.5,406.5 C 480.833,407.167 480.833,407.167 479.5,406.5 Z"/></g>
<g><path style="opacity:0.047" fill="#a195c5" d="M 50.5,407.5 C 51.9063,407.973 52.573,408.973 52.5,410.5C 51.0937,410.027 50.427,409.027 50.5,407.5 Z"/></g>
<g><path style="opacity:1" fill="#a45fd0" d="M 451.5,410.5 C 453.167,411.167 454.833,411.833 456.5,412.5C 454.118,417.248 450.784,421.248 446.5,424.5C 444.738,425.262 443.738,426.596 443.5,428.5C 438.833,433.833 433.833,438.833 428.5,443.5C 426.596,443.738 425.262,444.738 424.5,446.5C 420.246,450.963 415.579,454.963 410.5,458.5C 408.973,458.427 407.973,459.094 407.5,460.5C 388.02,475.923 366.353,487.59 342.5,495.5C 342.062,495.565 341.728,495.399 341.5,495C 376.167,467 410.833,439 445.5,411C 447.473,410.505 449.473,410.338 451.5,410.5 Z"/></g>
<g><path style="opacity:1" fill="#5d4c81" d="M 451.5,410.5 C 454.059,410.198 456.393,410.532 458.5,411.5C 458.158,412.338 457.492,412.672 456.5,412.5C 454.833,411.833 453.167,411.167 451.5,410.5 Z"/></g>
<g><path style="opacity:0.004" fill="#212c42" d="M 461.5,411.5 C 461.833,411.5 462.167,411.5 462.5,411.5C 462.315,412.17 461.981,412.17 461.5,411.5 Z"/></g>
<g><path style="opacity:1" fill="#a68cc7" d="M 59.5,419.5 C 61.5,419.5 62.5,420.5 62.5,422.5C 61.1667,421.833 60.1667,420.833 59.5,419.5 Z"/></g>
<g><path style="opacity:0.125" fill="#a293c4" d="M 64.5,424.5 C 66.2624,425.262 67.2624,426.596 67.5,428.5C 65.7376,427.738 64.7376,426.404 64.5,424.5 Z"/></g>
<g><path style="opacity:0.286" fill="#a396c4" d="M 446.5,424.5 C 446.262,426.404 445.262,427.738 443.5,428.5C 443.738,426.596 444.738,425.262 446.5,424.5 Z"/></g>
<g><path style="opacity:1" fill="#a48cc7" d="M 67.5,428.5 C 69.5,428.5 70.5,429.5 70.5,431.5C 69.1667,430.833 68.1667,429.833 67.5,428.5 Z"/></g>
<g><path style="opacity:1" fill="#a28ec5" d="M 79.5,440.5 C 82.4274,441.757 84.7607,443.757 86.5,446.5C 83.5726,445.243 81.2393,443.243 79.5,440.5 Z"/></g>
<g><path style="opacity:0.286" fill="#a294c4" d="M 428.5,443.5 C 427.738,445.262 426.404,446.262 424.5,446.5C 425.262,444.738 426.596,443.738 428.5,443.5 Z"/></g>
<g><path style="opacity:1" fill="#a489c6" d="M 88.5,448.5 C 90.7488,449.08 92.4154,450.413 93.5,452.5C 91.2512,451.92 89.5846,450.587 88.5,448.5 Z"/></g>
<g><path style="opacity:1" fill="#a28bc5" d="M 95.5,454.5 C 97.0269,454.427 98.0269,455.094 98.5,456.5C 96.9731,456.573 95.9731,455.906 95.5,454.5 Z"/></g>
<g><path style="opacity:1" fill="#a18bc5" d="M 99.5,457.5 C 101.404,457.738 102.738,458.738 103.5,460.5C 101.596,460.262 100.262,459.262 99.5,457.5 Z"/></g>
<g><path style="opacity:0.047" fill="#a197c5" d="M 410.5,458.5 C 410.027,459.906 409.027,460.573 407.5,460.5C 407.973,459.094 408.973,458.427 410.5,458.5 Z"/></g>
<g><path style="opacity:1" fill="#a188c5" d="M 103.5,460.5 C 105.027,460.427 106.027,461.094 106.5,462.5C 104.973,462.573 103.973,461.906 103.5,460.5 Z"/></g>
<g><path style="opacity:1" fill="#a788c9" d="M 106.5,462.5 C 108.404,462.738 109.738,463.738 110.5,465.5C 108.596,465.262 107.262,464.262 106.5,462.5 Z"/></g>
<g><path style="opacity:1" fill="#a359cf" d="M 304.5,463.5 C 317.513,462.025 324.013,467.691 324,480.5C 319.781,492.355 311.947,495.521 300.5,490C 291.525,479.609 292.858,470.776 304.5,463.5 Z"/></g>
<g><path style="opacity:1" fill="#a38fc9" d="M 110.5,465.5 C 112.027,465.427 113.027,466.094 113.5,467.5C 111.973,467.573 110.973,466.906 110.5,465.5 Z"/></g>
<g><path style="opacity:1" fill="#a08ac5" d="M 113.5,467.5 C 115.027,467.427 116.027,468.094 116.5,469.5C 114.973,469.573 113.973,468.906 113.5,467.5 Z"/></g>
<g><path style="opacity:1" fill="#a38fc5" d="M 116.5,469.5 C 118.027,469.427 119.027,470.094 119.5,471.5C 117.973,471.573 116.973,470.906 116.5,469.5 Z"/></g>
<g><path style="opacity:0.522" fill="#a69ac7" d="M 124.5,474.5 C 126.027,474.427 127.027,475.094 127.5,476.5C 125.973,476.573 124.973,475.906 124.5,474.5 Z"/></g>
<g><path style="opacity:0.547" fill="#a191c6" d="M 133.5,479.5 C 135.027,479.427 136.027,480.094 136.5,481.5C 134.973,481.573 133.973,480.906 133.5,479.5 Z"/></g>
<g><path style="opacity:0.008" fill="#212c42" d="M 336.5,499.5 C 337.833,500.167 337.833,500.167 336.5,499.5 Z"/></g>
<g><path style="opacity:1" fill="#a381cb" d="M 191.5,502.5 C 194.228,502.171 196.562,502.837 198.5,504.5C 195.933,504.279 193.599,503.612 191.5,502.5 Z"/></g>
<g><path style="opacity:0.02" fill="#212c42" d="M 332.5,502.5 C 333.833,503.167 333.833,503.167 332.5,502.5 Z"/></g>
<g><path style="opacity:0.004" fill="#212c42" d="M 318.5,509.5 C 318.833,509.5 319.167,509.5 319.5,509.5C 319.315,510.17 318.981,510.17 318.5,509.5 Z"/></g>
</svg>
